<?xml version="1.0" encoding="utf-8"?>
<!-- Generator: Adobe Illustrator 22.0.1, SVG Export Plug-In . SVG Version: 6.00 Build 0)  -->
<svg version="1.1" id="Layer_1" xmlns="http://www.w3.org/2000/svg" xmlns:xlink="http://www.w3.org/1999/xlink" x="0px" y="0px"
	 viewBox="0 0 1039.1 345.8" style="enable-background:new 0 0 1039.1 345.8;" xml:space="preserve">
<style type="text/css">
	.st0{fill:#FFFFFF;}
</style>
<path class="st0" d="M517.3,88.9c-2.8,0-4.4,1.6-4.4,4.4v160.9c0,2.8,1.6,4.4,4.4,4.4h27.4c2.8,0,4.4-1.6,4.4-4.4v-55.4l18.4-14.3
	l57,71c1.9,2.2,4.4,3.1,7.8,3.1h37.4c2.8,0,4-2.5,1.9-4.7l-79.1-90.6l74.4-69.7c2.2-2.2,1.2-4.7-1.6-4.7h-38c-3.4,0-6.2,0.9-8.1,2.5
	l-70,69.1V93.3c0-2.8-1.6-4.4-4.4-4.4H517.3L517.3,88.9z M701.8,88.9c-2.8,0-4.4,1.6-4.4,4.4v160.9c0,2.8,1.6,4.4,4.4,4.4h27.4
	c2.8,0,4.4-1.6,4.4-4.4v-40.8h45.8c1.2,0,2.8,0,5-0.3l20.9,42.3c1.1,2.2,3.1,3.1,5.6,3.1h30.5c2.5,0,4-2.1,2.8-4.4l-26.8-51.4
	c17.7-10.3,29.9-29.6,29.9-52c0-35.2-29-61.9-66.6-61.9L701.8,88.9L701.8,88.9z M733.6,179.2v-56h47.1c19.6,0,30.5,11.8,30.5,27.7
	s-10.9,28.3-30.5,28.3H733.6z M1007.6,166.4c-2.8,0-4.4,1.6-4.4,4.4v41.1c-10.9,10-21.8,14.9-41.7,14.9c-30.5,0-50.1-22.7-50.1-53.5
	s20.5-52.6,51.7-52.6c20.9,0,35.5,7.8,47.9,23.7c1.2,1.6,3.4,2.4,5.9,0.6l19.6-14.3c1.6-1.2,1.9-2.9,0.6-5
	c-15.2-24.3-44.8-39.2-74.1-39.2c-49.8,0-87.8,36.7-87.8,86.8c0,51.1,34.9,87.8,84.7,87.8c19.6,0,35.8-5,47.9-15.9l3.4,10.3
	c0.7,2.1,2.2,3.1,5,3.1h18.4c2.8,0,4.4-1.6,4.4-4.4v-83.4c0-2.8-1.6-4.4-4.4-4.4L1007.6,166.4z"/>
<path class="st0" d="M300.3,103.2c6.4-6.4,16.9-6.4,23.3,0s6.4,16.9,0,23.3l-151,151c-5,5-11.9,4.8-16.8,0l-151-151
	c-6.4-6.4-6.4-16.9,0-23.3s16.9-6.4,23.3,0l123.6,123.6c3.4,3.4,8,5.1,12.5,5.1c4.3,0,8.6-1.5,11.9-4.5L300.3,103.2L300.3,103.2z
	 M172.8,69.5c-5.3,5.3-12.2,4.8-17.3-0.3l-46.7-46.7c-5.1-5.1-5.1-13.5,0-18.6s13.5-5.1,18.7,0l29.7,29.7c3.8,4.2,10.3,4,14.3,0.1
	l29.8-29.8c5.1-5.1,13.5-5.1,18.7,0c5.1,5.1,5.1,13.5,0,18.6L172.8,69.5L172.8,69.5z M172.6,171.9c-4.7,4.7-11.8,4.6-16.8-0.1
	l-98.1-98c-5.8-5.8-5.8-15.2,0-21s15.2-5.8,21,0l80.3,80.3c1.4,1.4,3.3,2.1,5.2,2.1s3.8-0.7,5.2-2.1l80.3-80.3
	c5.8-5.8,15.2-5.8,21,0s5.8,15.2,0,21L172.6,171.9z"/>
<path class="st0" d="M55,345.8c-5.5,0-9.9-4.4-9.9-9.9s4.4-9.9,9.9-9.9h218.4c5.5,0,9.9,4.4,9.9,9.9s-4.4,9.9-9.9,9.9H55z"/>
</svg>
