<?xml version="1.0" encoding="utf-8"?>
<!-- Generator: Adobe Illustrator 22.0.1, SVG Export Plug-In . SVG Version: 6.00 Build 0)  -->
<svg version="1.1" id="Layer_1" xmlns="http://www.w3.org/2000/svg" xmlns:xlink="http://www.w3.org/1999/xlink" x="0px" y="0px"
	 viewBox="0 0 250 250" style="enable-background:new 0 0 250 250;" xml:space="preserve">
<style type="text/css">
	.st0{fill:#FFFFFF;}
</style>
<path class="st0" d="M115.9,144.4c5.6-5.6,13-5.1,18.4,0.3l49.6,49.6c5.4,5.4,5.4,14.3,0,19.8s-14.3,5.4-19.9,0l-31.6-31.6
	c-4-4.5-10.9-4.3-15.2-0.1l-31.7,31.7c-5.4,5.4-14.3,5.4-19.9,0c-5.4-5.4-5.4-14.3,0-19.8L115.9,144.4L115.9,144.4z M116.1,35.5
	c5-5,12.5-4.9,17.9,0.1l104.3,104.1c6.2,6.2,6.2,16.2,0,22.3c-6.2,6.2-16.2,6.2-22.3,0l-85.3-85.3c-1.5-1.5-3.5-2.2-5.5-2.2
	c-2,0-4,0.7-5.5,2.2l-85.3,85.3c-6.2,6.2-16.2,6.2-22.3,0c-6.2-6.2-6.2-16.2,0-22.3L116.1,35.5z"/>
</svg>
