<?xml version="1.0" encoding="utf-8"?>
<!-- Generator: Adobe Illustrator 22.0.1, SVG Export Plug-In . SVG Version: 6.00 Build 0)  -->
<svg version="1.1" id="Layer_1" xmlns="http://www.w3.org/2000/svg" xmlns:xlink="http://www.w3.org/1999/xlink" x="0px" y="0px"
	 viewBox="0 0 250 250" style="enable-background:new 0 0 250 250;" xml:space="preserve">
<style type="text/css">
	.st0{fill:#FFFFFF;}
</style>
<g>
	<path class="st0" d="M125,237.1L125,237.1c-8.5,0-15.5-7-15.5-15.5V28.4c0-8.5,7-15.5,15.5-15.5h0c8.5,0,15.5,7,15.5,15.5v193.2
		C140.5,230.1,133.5,237.1,125,237.1z"/>
	<path class="st0" d="M12.9,125L12.9,125c0-8.1,6.6-14.7,14.7-14.7h194.7c8.1,0,14.7,6.6,14.7,14.7v0c0,8.1-6.6,14.7-14.7,14.7H27.7
		C19.6,139.7,12.9,133.1,12.9,125z"/>
</g>
</svg>
